<?xml version="1.0" encoding="utf-8"?>
<svg viewBox="0 3.875 251.31 72.33" xmlns="http://www.w3.org/2000/svg">
  <g class="sheep" style=" stroke-width: 3px; fill: none; stroke: rgb(127,127,127);" transform="matrix(1, 0, 0, 1, -157.193344, -121.317406)">
    <ellipse cx="177.819" cy="157.286" rx="12.689" ry="16.586"/>
    <line style="transform-box: fill-box; transform-origin: 50% 50%;" x1="175.083" y1="164.467" x2="173.578" y2="189.933"/>
    <ellipse cx="192.875" cy="148.216" rx="12.689" ry="16.586"/>
    <ellipse cx="181.645" cy="141.074" rx="9.913" ry="9.232"/>
    <ellipse cx="193.294" cy="161.427" rx="11.053" ry="10.685"/>
    <ellipse cx="205.849" cy="155.551" rx="11.529" ry="9.601"/>
    <line style="transform-origin: 205.68px 176.364px;" x1="206.433" y1="163.631" x2="204.928" y2="189.097"/>
    <line style="transform-origin: 199.794px 177.737px;" x1="200.547" y1="165.004" x2="199.042" y2="190.47"/>
    <line style="transform-origin: 181.643px 177.037px;" x1="182.396" y1="164.304" x2="180.891" y2="189.77"/>
  </g>
  <g class="sheep" style=" stroke-width: 3px; fill: none; stroke: rgb(127,127,127);" transform="matrix(1, 0, 0, 1, -157.193344, -121.317406)">
    <ellipse cx="259.609" cy="155.846" rx="11.728" ry="17.956"/>
    <line style="transform-origin: 257.081px 177.13px;" x1="257.834" y1="164.397" x2="256.329" y2="189.863"/>
    <ellipse cx="264.396" cy="141.004" rx="9.913" ry="9.232"/>
    <ellipse cx="266.588" cy="158.605" rx="11.053" ry="10.685"/>
    <ellipse cx="243.959" cy="154.756" rx="11.529" ry="9.601"/>
    <line style="transform-origin: 253.668px 174.982px;" x1="254.421" y1="162.249" x2="252.916" y2="187.715"/>
    <line style="transform-origin: 264.394px 176.967px;" x1="265.147" y1="164.234" x2="263.642" y2="189.7"/>
    <path d="M 250.357 137.528 C 250.083 142.398 245.799 146.138 240.501 146.138 C 235.203 146.138 230.876 142.268 230.602 137.398"/>
  </g>
  <g class="sheep" style=" stroke-width: 3px; fill: none; stroke: rgb(127,127,127);" transform="matrix(1, 0, 0, 1, -157.193344, -121.317406)">
    <ellipse cx="322.52" cy="155.361" rx="12.689" ry="16.586"/>
    <line style="transform-origin: 309.056px 176.962px;" x1="309.809" y1="164.229" x2="308.304" y2="189.695"/>
    <ellipse cx="316.371" cy="140.836" rx="9.913" ry="9.232"/>
    <ellipse cx="307.858" cy="156.798" rx="11.053" ry="10.685"/>
    <ellipse cx="309.072" cy="147.239" rx="11.529" ry="9.601"/>
    <line style="transform-origin: 328.55px 178.29px;" x1="329.303" y1="165.557" x2="327.798" y2="191.023"/>
    <line style="transform-origin: 301.257px 174.586px;" x1="302.01" y1="161.853" x2="300.505" y2="187.319"/>
    <line style="transform-origin: 316.369px 176.799px;" x1="317.122" y1="164.066" x2="315.617" y2="189.532"/>
  </g>
  <g class="sheep" style=" stroke-width: 3px; fill: none; stroke: rgb(127,127,127);" transform="matrix(1, 0, 0, 1, -38.657471, -121.317001)">
    <line style="transform-origin: 257.081px 177.13px;" x1="257.834" y1="164.397" x2="256.329" y2="189.863"/>
    <ellipse cx="274.026" cy="144.317" rx="7.536" ry="6.935" style=""/>
    <line style="transform-origin: 253.668px 174.982px;" x1="254.421" y1="162.249" x2="252.916" y2="187.715"/>
    <line style="transform-origin: 264.394px 176.967px;" x1="265.147" y1="164.234" x2="263.642" y2="189.7"/>
    <path style="fill: rgb(216, 216, 216);" d="M 251.168 136.639 L 255.707 146.301"/>
    <path style="fill: rgb(216, 216, 216);" d="M 260.335 141.073 L 264.874 150.735"/>
    <path style="fill: rgb(216, 216, 216);" d="M 255.474 149.431 L 260.013 159.093"/>
    <path style="fill: rgb(216, 216, 216);" d="M 262.312 150.143 L 266.851 159.805"/>
    <path style="fill: rgb(216, 216, 216);" d="M 268.433 147.065 L 272.972 156.727"/>
    <path style="fill: rgb(216, 216, 216);" d="M 262.679 134.098 L 267.218 143.76"/>
    <path style="fill: rgb(216, 216, 216);" d="M 268.927 158.254 L 273.466 167.916"/>
    <path style="fill: rgb(216, 216, 216);" d="M 263.029 161.817 L 267.568 171.479"/>
    <path style="fill: rgb(216, 216, 216);" d="M 256.693 161.085 L 261.232 170.747"/>
    <path style="fill: rgb(216, 216, 216);" d="M 249.251 162.248 L 253.79 171.91"/>
    <path style="fill: rgb(216, 216, 216);" d="M 248.248 152.356 L 252.787 162.018"/>
    <path style="fill: rgb(216, 216, 216);" d="M 248.152 143.732 L 252.691 153.394"/>
    <ellipse cx="246.294" cy="159.702" rx="2.202" ry="2.026" style=""/>
  </g>
</svg>